<svg xmlns="http://www.w3.org/2000/svg" width="920" height="540" viewBox="0 0 920 540" font-family="-apple-system, BlinkMacSystemFont, 'Segoe UI', Roboto, sans-serif">
  <defs>
    <linearGradient id="brand" x1="0" y1="0" x2="1" y2="1">
      <stop offset="0" stop-color="#3b82f6"/>
      <stop offset="1" stop-color="#a855f7"/>
    </linearGradient>
    <linearGradient id="glow" x1="0" y1="0" x2="1" y2="0">
      <stop offset="0" stop-color="#3b82f6"/>
      <stop offset="1" stop-color="#a855f7"/>
    </linearGradient>
    <clipPath id="card"><rect width="920" height="540" rx="16"/></clipPath>
  </defs>

  <g clip-path="url(#card)">
    <rect width="920" height="540" fill="#0b0d12"/>
    <ellipse cx="760" cy="-40" rx="420" ry="220" fill="#3b82f6" opacity="0.12"/>

    <!-- Header -->
    <rect x="0" y="0" width="920" height="58" fill="#0e111a"/>
    <line x1="0" y1="58" x2="920" y2="58" stroke="#252b3b"/>
    <rect x="28" y="15" width="28" height="28" rx="8" fill="url(#brand)"/>
    <text x="42" y="34" fill="#fff" font-size="15" text-anchor="middle" font-weight="700">⬇</text>
    <text x="68" y="27" fill="#e9ecf4" font-size="14" font-weight="700">YouTube Playlist Downloader</text>
    <text x="68" y="43" fill="#9aa3ba" font-size="10.5">Saving to ~/yt-playlist-downloader/downloads</text>
    <text x="828" y="36" fill="#9aa3ba" font-size="12">GitHub</text>
    <rect x="868" y="14" width="30" height="30" rx="8" fill="#151926" stroke="#252b3b"/>
    <text x="883" y="34" font-size="13" text-anchor="middle">🌙</text>

    <!-- Search bar -->
    <rect x="28" y="80" width="864" height="60" rx="14" fill="#151926" stroke="#252b3b"/>
    <rect x="44" y="98" width="540" height="24" rx="8" fill="#0b0d12" stroke="#252b3b"/>
    <text x="60" y="114" fill="#6b7388" font-size="12.5">Paste a YouTube playlist or video URL…</text>
    <rect x="596" y="96" width="150" height="28" rx="8" fill="#0b0d12" stroke="#252b3b"/>
    <text x="610" y="114" fill="#e9ecf4" font-size="12.5">Best quality ▾</text>
    <rect x="758" y="96" width="118" height="28" rx="8" fill="url(#brand)"/>
    <text x="817" y="114" fill="#fff" font-size="12.5" font-weight="700" text-anchor="middle">Load</text>

    <!-- Toolbar -->
    <text x="28" y="172" fill="#e9ecf4" font-size="14" font-weight="700">30 Days Of GitLab DevOps</text>
    <text x="28" y="189" fill="#9aa3ba" font-size="11.5">30 videos</text>
    <text x="556" y="180" fill="#9aa3ba" font-size="11.5">☑ Select all</text>
    <rect x="640" y="166" width="92" height="26" rx="8" fill="#1b2030" stroke="#252b3b"/>
    <text x="686" y="183" fill="#e9ecf4" font-size="11" text-anchor="middle">📁 Open</text>
    <rect x="740" y="166" width="152" height="26" rx="8" fill="url(#brand)"/>
    <text x="816" y="183" fill="#fff" font-size="11" font-weight="700" text-anchor="middle">⬇ Download selected (3)</text>

    <!-- Overall progress -->
    <rect x="28" y="206" width="864" height="40" rx="10" fill="#151926" stroke="#252b3b"/>
    <rect x="44" y="223" width="700" height="7" rx="4" fill="#0b0d12"/>
    <rect x="44" y="223" width="280" height="7" rx="4" fill="url(#glow)"/>
    <text x="876" y="230" fill="#9aa3ba" font-size="11.5" text-anchor="end">12/30 done · 1 in progress</text>

    <!-- Row 1: downloading -->
    <rect x="28" y="262" width="864" height="74" rx="14" fill="#151926" stroke="#3b82f6" stroke-opacity="0.5"/>
    <rect x="44" y="282" width="16" height="16" rx="4" fill="#3b82f6"/>
    <rect x="72" y="276" width="100" height="46" rx="8" fill="#000"/>
    <rect x="76" y="280" width="92" height="38" rx="6" fill="#1b2030"/>
    <text x="122" y="304" font-size="18" text-anchor="middle">▶</text>
    <text x="146" y="289" fill="#fff" font-size="8" text-anchor="end">14:22</text>
    <text x="188" y="287" fill="#e9ecf4" font-size="13" font-weight="600">Day-13 · Pipeline Debugging · 30 Days Of GitLab DevOps</text>
    <text x="188" y="303" fill="#9aa3ba" font-size="11">DevOps Channel</text>
    <rect x="188" y="312" width="560" height="6" rx="3" fill="#0b0d12"/>
    <rect x="188" y="312" width="370" height="6" rx="3" fill="url(#glow)"/>
    <text x="188" y="331" fill="#f59e0b" font-size="10.5" font-weight="700">↓ 66% · 8.4MiB/s · ETA 00:21</text>
    <rect x="800" y="288" width="76" height="26" rx="8" fill="#1b2030" stroke="#252b3b"/>
    <text x="838" y="305" fill="#e9ecf4" font-size="11" text-anchor="middle">Cancel</text>

    <!-- Row 2: done -->
    <rect x="28" y="346" width="864" height="74" rx="14" fill="#151926" stroke="#252b3b"/>
    <rect x="44" y="366" width="16" height="16" rx="4" fill="#0b0d12" stroke="#252b3b"/>
    <rect x="72" y="360" width="100" height="46" rx="8" fill="#000"/>
    <rect x="76" y="364" width="92" height="38" rx="6" fill="#1b2030"/>
    <text x="122" y="388" font-size="18" text-anchor="middle">▶</text>
    <text x="146" y="373" fill="#fff" font-size="8" text-anchor="end">11:05</text>
    <text x="188" y="371" fill="#e9ecf4" font-size="13" font-weight="600">Day-12 · Rules &amp; Conditions in Jobs · 30 Days Of GitLab DevOps</text>
    <text x="188" y="387" fill="#9aa3ba" font-size="11">DevOps Channel</text>
    <rect x="188" y="396" width="560" height="6" rx="3" fill="#0b0d12"/>
    <rect x="188" y="396" width="560" height="6" rx="3" fill="#22c55e"/>
    <text x="188" y="415" fill="#22c55e" font-size="10.5" font-weight="700">✓ done</text>
    <rect x="788" y="372" width="88" height="26" rx="8" fill="#1b2030" stroke="#252b3b"/>
    <text x="832" y="389" fill="#e9ecf4" font-size="11" text-anchor="middle">Re-download</text>

    <!-- Row 3: queued -->
    <rect x="28" y="430" width="864" height="74" rx="14" fill="#151926" stroke="#252b3b"/>
    <rect x="44" y="450" width="16" height="16" rx="4" fill="#3b82f6"/>
    <rect x="72" y="444" width="100" height="46" rx="8" fill="#000"/>
    <rect x="76" y="448" width="92" height="38" rx="6" fill="#1b2030"/>
    <text x="122" y="472" font-size="18" text-anchor="middle">▶</text>
    <text x="146" y="457" fill="#fff" font-size="8" text-anchor="end">09:48</text>
    <text x="188" y="455" fill="#e9ecf4" font-size="13" font-weight="600">Day-14 · Docker in GitLab CICD · 30 Days Of GitLab DevOps</text>
    <text x="188" y="471" fill="#9aa3ba" font-size="11">DevOps Channel</text>
    <rect x="188" y="480" width="560" height="6" rx="3" fill="#0b0d12"/>
    <text x="188" y="499" fill="#9aa3ba" font-size="10.5" font-weight="700">• queued</text>
    <rect x="800" y="456" width="76" height="26" rx="8" fill="#1b2030" stroke="#252b3b"/>
    <text x="838" y="473" fill="#e9ecf4" font-size="11" text-anchor="middle">Cancel</text>
  </g>
</svg>
