<svg xmlns="http://www.w3.org/2000/svg" width="920" height="560" viewBox="0 0 920 560" font-family="-apple-system, BlinkMacSystemFont, 'Segoe UI', Roboto, sans-serif">
  <defs>
    <linearGradient id="brand" x1="0" y1="0" x2="1" y2="1">
      <stop offset="0" stop-color="#3b82f6"/>
      <stop offset="1" stop-color="#a855f7"/>
    </linearGradient>
    <clipPath id="card"><rect width="920" height="560" rx="16"/></clipPath>
  </defs>

  <g clip-path="url(#card)">
    <rect width="920" height="560" fill="#0b0d12"/>
    <ellipse cx="760" cy="-40" rx="420" ry="220" fill="#3b82f6" opacity="0.12"/>

    <!-- Header -->
    <rect x="0" y="0" width="920" height="58" fill="#0e111a"/>
    <line x1="0" y1="58" x2="920" y2="58" stroke="#252b3b"/>
    <rect x="28" y="15" width="28" height="28" rx="8" fill="url(#brand)"/>
    <text x="42" y="35" font-size="14" text-anchor="middle">🧰</text>
    <text x="68" y="27" fill="#e9ecf4" font-size="14" font-weight="700">YouTube Playlist Toolkit</text>
    <text x="68" y="43" fill="#9aa3ba" font-size="10.5">Download videos &amp; extract chapters — 100% local</text>
    <text x="828" y="36" fill="#9aa3ba" font-size="12">GitHub</text>
    <rect x="868" y="14" width="30" height="30" rx="8" fill="#151926" stroke="#252b3b"/>
    <text x="883" y="34" font-size="13" text-anchor="middle">🌙</text>

    <!-- Mode tabs -->
    <rect x="28" y="74" width="864" height="46" rx="12" fill="#151926" stroke="#252b3b"/>
    <rect x="34" y="80" width="426" height="34" rx="9" fill="url(#brand)"/>
    <text x="247" y="101" fill="#fff" font-size="13" font-weight="700" text-anchor="middle">⬇ Download videos</text>
    <text x="673" y="101" fill="#9aa3ba" font-size="13" font-weight="700" text-anchor="middle">📑 Extract chapters</text>

    <!-- Search bar -->
    <rect x="28" y="132" width="864" height="56" rx="14" fill="#151926" stroke="#252b3b"/>
    <rect x="44" y="148" width="520" height="24" rx="8" fill="#0b0d12" stroke="#252b3b"/>
    <text x="60" y="164" fill="#6b7388" font-size="12.5">Paste a YouTube playlist or video URL…</text>
    <rect x="576" y="146" width="150" height="28" rx="8" fill="#0b0d12" stroke="#252b3b"/>
    <text x="590" y="164" fill="#e9ecf4" font-size="12.5">Best quality ▾</text>
    <rect x="738" y="146" width="138" height="28" rx="8" fill="url(#brand)"/>
    <text x="807" y="164" fill="#fff" font-size="12.5" font-weight="700" text-anchor="middle">Load</text>

    <!-- Toolbar -->
    <text x="28" y="216" fill="#e9ecf4" font-size="14" font-weight="700">30 Days Of GitLab DevOps</text>
    <text x="28" y="233" fill="#9aa3ba" font-size="11.5">30 videos</text>
    <text x="556" y="224" fill="#9aa3ba" font-size="11.5">☑ Select all</text>
    <rect x="640" y="210" width="92" height="26" rx="8" fill="#1b2030" stroke="#252b3b"/>
    <text x="686" y="227" fill="#e9ecf4" font-size="11" text-anchor="middle">📁 Open</text>
    <rect x="740" y="210" width="152" height="26" rx="8" fill="url(#brand)"/>
    <text x="816" y="227" fill="#fff" font-size="11" font-weight="700" text-anchor="middle">⬇ Download selected (3)</text>

    <!-- Overall progress -->
    <rect x="28" y="250" width="864" height="40" rx="10" fill="#151926" stroke="#252b3b"/>
    <rect x="44" y="267" width="700" height="7" rx="4" fill="#0b0d12"/>
    <rect x="44" y="267" width="280" height="7" rx="4" fill="url(#brand)"/>
    <text x="876" y="274" fill="#9aa3ba" font-size="11.5" text-anchor="end">12/30 done · 1 in progress</text>

    <!-- Row 1: downloading -->
    <rect x="28" y="306" width="864" height="74" rx="14" fill="#151926" stroke="#3b82f6" stroke-opacity="0.5"/>
    <rect x="44" y="326" width="16" height="16" rx="4" fill="#3b82f6"/>
    <rect x="72" y="320" width="100" height="46" rx="8" fill="#1b2030"/>
    <text x="122" y="348" font-size="18" text-anchor="middle">▶</text>
    <text x="146" y="333" fill="#fff" font-size="8" text-anchor="end">14:22</text>
    <text x="188" y="331" fill="#e9ecf4" font-size="13" font-weight="600">Day-13 · Pipeline Debugging · 30 Days Of GitLab DevOps</text>
    <text x="188" y="347" fill="#9aa3ba" font-size="11">DevOps Channel</text>
    <rect x="188" y="356" width="560" height="6" rx="3" fill="#0b0d12"/>
    <rect x="188" y="356" width="370" height="6" rx="3" fill="url(#brand)"/>
    <text x="188" y="375" fill="#f59e0b" font-size="10.5" font-weight="700">↓ 66% · 8.4MiB/s · ETA 00:21</text>
    <rect x="800" y="332" width="76" height="26" rx="8" fill="#1b2030" stroke="#252b3b"/>
    <text x="838" y="349" fill="#e9ecf4" font-size="11" text-anchor="middle">Cancel</text>

    <!-- Row 2: done -->
    <rect x="28" y="390" width="864" height="74" rx="14" fill="#151926" stroke="#252b3b"/>
    <rect x="44" y="410" width="16" height="16" rx="4" fill="#0b0d12" stroke="#252b3b"/>
    <rect x="72" y="404" width="100" height="46" rx="8" fill="#1b2030"/>
    <text x="122" y="432" font-size="18" text-anchor="middle">▶</text>
    <text x="146" y="417" fill="#fff" font-size="8" text-anchor="end">11:05</text>
    <text x="188" y="415" fill="#e9ecf4" font-size="13" font-weight="600">Day-12 · Rules &amp; Conditions in Jobs · 30 Days Of GitLab DevOps</text>
    <text x="188" y="431" fill="#9aa3ba" font-size="11">DevOps Channel</text>
    <rect x="188" y="440" width="560" height="6" rx="3" fill="#0b0d12"/>
    <rect x="188" y="440" width="560" height="6" rx="3" fill="#22c55e"/>
    <text x="188" y="459" fill="#22c55e" font-size="10.5" font-weight="700">✓ done</text>
    <rect x="788" y="416" width="88" height="26" rx="8" fill="#1b2030" stroke="#252b3b"/>
    <text x="832" y="433" fill="#e9ecf4" font-size="11" text-anchor="middle">Re-download</text>

    <!-- Row 3: queued -->
    <rect x="28" y="474" width="864" height="74" rx="14" fill="#151926" stroke="#252b3b"/>
    <rect x="44" y="494" width="16" height="16" rx="4" fill="#3b82f6"/>
    <rect x="72" y="488" width="100" height="46" rx="8" fill="#1b2030"/>
    <text x="122" y="516" font-size="18" text-anchor="middle">▶</text>
    <text x="146" y="501" fill="#fff" font-size="8" text-anchor="end">09:48</text>
    <text x="188" y="499" fill="#e9ecf4" font-size="13" font-weight="600">Day-14 · Docker in GitLab CICD · 30 Days Of GitLab DevOps</text>
    <text x="188" y="515" fill="#9aa3ba" font-size="11">DevOps Channel</text>
    <rect x="188" y="524" width="560" height="6" rx="3" fill="#0b0d12"/>
    <text x="188" y="543" fill="#9aa3ba" font-size="10.5" font-weight="700">• queued</text>
    <rect x="800" y="500" width="76" height="26" rx="8" fill="#1b2030" stroke="#252b3b"/>
    <text x="838" y="517" fill="#e9ecf4" font-size="11" text-anchor="middle">Cancel</text>
  </g>
</svg>
